<?xml version="1.0" encoding="utf-8"?>
<!-- Generator: Adobe Illustrator 24.1.1, SVG Export Plug-In . SVG Version: 6.00 Build 0)  -->
<svg version="1.1" xmlns="http://www.w3.org/2000/svg" xmlns:xlink="http://www.w3.org/1999/xlink" x="0px" y="0px"
	 viewBox="0 0 153.1 226.7" style="enable-background:new 0 0 153.1 226.7;" xml:space="preserve">
<style type="text/css">
	.st0{display:none;}
	.st1{fill:#FAFAFA;stroke:#D1D1D1;stroke-miterlimit:10;}
	.st2{filter:url(#Adobe_OpacityMaskFilter);}
	.st3{opacity:0.4;mask:url(#SVGID_1_);fill:url(#SVGID_2_);stroke:#FAB01B;stroke-width:1.0299;stroke-miterlimit:10;}
	.st4{fill:#FFFFFF;}
	.st5{clip-path:url(#SVGID_4_);fill:#FFFFFF;}
	.st6{clip-path:url(#SVGID_4_);fill:url(#SVGID_5_);}
	.st7{clip-path:url(#SVGID_7_);fill:#FFFFFF;}
	.st8{clip-path:url(#SVGID_7_);fill:url(#SVGID_8_);}
	.st9{clip-path:url(#SVGID_10_);fill:#FFFFFF;}
	.st10{clip-path:url(#SVGID_10_);fill:url(#SVGID_11_);}
	.st11{fill:#F2F2F2;}
	.st12{fill:#3EBFC9;}
	.st13{display:none;fill:none;stroke:#FAB01B;stroke-miterlimit:10;}
	.st14{fill:none;stroke:#FAB01B;stroke-miterlimit:10;}
	.st15{fill:#28348A;}
	.st16{fill:#74CBF3;}
	.st17{fill:#74CBF3;stroke:#28348A;stroke-width:0.9945;stroke-linecap:round;stroke-linejoin:round;stroke-miterlimit:10;}
	.st18{fill:#FFFFFF;stroke:#28348A;stroke-width:0.9945;stroke-linecap:round;stroke-linejoin:round;stroke-miterlimit:10;}
	.st19{fill:#267792;}
	.st20{fill:none;stroke:#28348A;stroke-width:1.0089;stroke-linecap:round;stroke-linejoin:round;stroke-miterlimit:10;}
	.st21{fill:none;stroke:#28348A;stroke-width:0.6415;stroke-miterlimit:10;}
	.st22{fill:#28348A;stroke:#F2F2F2;stroke-width:0.6415;stroke-miterlimit:10;}
	.st23{fill:none;stroke:#74CBF3;stroke-width:0.6415;stroke-miterlimit:10;}
	.st24{fill:none;}
	.st25{fill:none;stroke:#28348A;stroke-width:0.9945;stroke-linecap:round;stroke-linejoin:round;stroke-miterlimit:10;}
	.st26{fill:#FAFAFA;}
	.st27{fill:none;stroke:#D1D1D1;stroke-miterlimit:10;}
	.st28{fill:none;stroke:#000000;stroke-miterlimit:10;}
	.st29{fill:#FBB01B;}
	.st30{fill:none;stroke:#FAB01B;stroke-width:0.331;stroke-miterlimit:10;}
	.st31{fill:#FAB01B;}
	.st32{fill:#277893;}
	.st33{fill:#BFCAD7;}
	.st34{fill:none;stroke:#FAB01B;stroke-width:4.5263;stroke-miterlimit:10;}
	.st35{fill:none;stroke:#FAB01B;stroke-width:11;stroke-linecap:round;stroke-miterlimit:10;}
	.st36{fill:none;stroke:#FAB01B;stroke-width:3.0275;stroke-miterlimit:10;}
	.st37{fill:none;stroke:#FAB01B;stroke-width:7.3576;stroke-linecap:round;stroke-miterlimit:10;}
	.st38{filter:url(#Adobe_OpacityMaskFilter_1_);}
	.st39{mask:url(#SVGID_12_);fill:#FAFAFA;stroke:#FBB01B;stroke-miterlimit:10;}
	.st40{clip-path:url(#SVGID_14_);fill:#FFFFFF;}
	.st41{clip-path:url(#SVGID_14_);fill:url(#SVGID_15_);}
	.st42{clip-path:url(#SVGID_17_);fill:#FFFFFF;}
	.st43{clip-path:url(#SVGID_17_);fill:url(#SVGID_18_);}
	.st44{fill:none;stroke:#D4D4D4;stroke-miterlimit:10;}
	.st45{fill:url(#SVGID_19_);stroke:#E0E0E0;stroke-miterlimit:10;}
	.st46{fill:url(#SVGID_20_);stroke:#E0E0E0;stroke-width:0.9895;stroke-miterlimit:10;}
	.st47{fill:url(#SVGID_21_);}
	.st48{fill:url(#SVGID_22_);}
	.st49{fill:url(#SVGID_23_);}
	.st50{fill:none;stroke:#277893;stroke-miterlimit:10;}
	.st51{fill:url(#SVGID_24_);}
	.st52{fill:url(#SVGID_25_);stroke:#E0E0E0;stroke-miterlimit:10;}
	.st53{fill:url(#SVGID_26_);}
	.st54{fill:url(#SVGID_27_);}
	.st55{fill:url(#SVGID_28_);}
	.st56{fill:url(#SVGID_29_);}
	.st57{fill:#2E5766;}
	.st58{fill:#E8E8E8;}
	.st59{fill:#D1D1D1;}
	.st60{fill:none;stroke:#D1D1D1;stroke-width:0.5263;stroke-miterlimit:10;}
	.st61{fill:#F0D297;}
	.st62{fill:none;stroke:#F0D297;stroke-width:0.5263;stroke-miterlimit:10;}
	.st63{fill:#EAEAEA;}
	.st64{fill:#E2E2E2;}
	.st65{fill:#A0B6C4;}
	.st66{fill:#FFFFFF;stroke:#999999;stroke-width:0.5;stroke-miterlimit:10;}
	.st67{fill:none;stroke:#FFFFFF;stroke-width:2;stroke-miterlimit:10;}
	.st68{fill:#FFA300;}
	.st69{fill:none;stroke:#FAB01B;stroke-width:5.0984;stroke-linecap:round;stroke-miterlimit:10;}
	.st70{fill:none;stroke:#D1D1D1;stroke-width:0.8159;stroke-miterlimit:10;}
	.st71{fill:#A0B6C4;stroke:#CCCCCC;stroke-miterlimit:10;}
	.st72{fill:#A0B6C4;stroke:#CCCCCC;stroke-width:0.1088;stroke-miterlimit:10;}
	.st73{fill:none;stroke:#277893;stroke-width:0.4211;stroke-miterlimit:10;}
</style>
<g id="Grid" class="st0">
</g>
<g id="Bakcground">
</g>
<g id="Top_Bar">
</g>
<g id="Icones">
</g>
<g id="Camada_2">
	<g>
		<g>
			<g>
				<path class="st68" d="M97.2,115.5c-0.2,0-0.3-0.1-0.4-0.2l-1.8-2.7c-0.1-0.2-0.1-0.4,0-0.6l0.8-1l-5.3-9.4
					c-0.1-0.1-0.1-0.3,0-0.4l0.4-1.1c0.1-0.2,0.2-0.3,0.4-0.3c0,0,0,0,0.1,0c0.2,0,0.3,0.1,0.4,0.2l6,10l1-0.4c0.1,0,0.1,0,0.2,0
					c0.2,0,0.3,0.1,0.4,0.2l2,3c0.1,0.2,0.1,0.4,0,0.5c-0.1,0.2-0.3,0.3-0.4,0.3h-2.3l-0.9,1.7C97.6,115.4,97.4,115.5,97.2,115.5
					C97.2,115.5,97.2,115.5,97.2,115.5z"/>
				<path class="st4" d="M91.3,100.3l6.2,10.3l1.4-0.6l2,3h-2.6l-1,2l-1.8-2.7l1-1.3l-5.5-9.7L91.3,100.3 M91.3,99.3
					c0,0-0.1,0-0.1,0c-0.4,0-0.7,0.3-0.8,0.7L90,101c-0.1,0.3-0.1,0.6,0.1,0.8l5.2,9.1l-0.6,0.8c-0.3,0.3-0.3,0.8-0.1,1.2l1.8,2.7
					c0.2,0.3,0.5,0.5,0.8,0.5c0,0,0,0,0,0c0.4,0,0.7-0.2,0.8-0.5l0.8-1.4h2c0.4,0,0.7-0.2,0.9-0.5c0.2-0.3,0.2-0.7,0-1l-2-3
					c-0.2-0.3-0.5-0.4-0.8-0.4c-0.1,0-0.3,0-0.4,0.1l-0.6,0.2l-5.8-9.6C92,99.4,91.7,99.3,91.3,99.3L91.3,99.3z"/>
			</g>
			<g>
				<path class="st68" d="M65.7,127.8c-0.3,0-0.6-0.2-0.8-0.5l-3.8-6.6c-0.2-0.3-0.2-0.7,0-1c8.6-13.9,22.8-14.3,24.4-14.3l0.2,0
					c0.3,0,0.6,0.2,0.8,0.5l4.2,6.6c0.2,0.3,0.2,0.7,0,1s-0.5,0.5-0.8,0.5c-8,0.7-15.1,3.2-23.3,13.5
					C66.4,127.7,66.1,127.8,65.7,127.8C65.8,127.8,65.8,127.8,65.7,127.8z"/>
				<path class="st4" d="M85.5,106.4c0.1,0,0.2,0,0.2,0l4.2,6.6c-9,0.7-16,3.9-24,13.8l-3.8-6.6C70.4,106.8,83.9,106.4,85.5,106.4
					 M85.5,104.4c-1.6,0-16.3,0.4-25.2,14.8c-0.4,0.6-0.4,1.4,0,2.1l3.8,6.6c0.3,0.6,0.9,0.9,1.6,1c0.1,0,0.1,0,0.2,0
					c0.6,0,1.2-0.3,1.6-0.7c8.1-10,14.9-12.5,22.6-13.1c0.7-0.1,1.3-0.5,1.6-1.1s0.3-1.4-0.1-2l-4.2-6.6c-0.4-0.6-1-0.9-1.6-0.9
					C85.8,104.4,85.7,104.4,85.5,104.4L85.5,104.4z"/>
			</g>
			<g>
				<path class="st68" d="M50.8,123.3c-0.4,0-0.7-0.2-0.9-0.5c-0.2-0.3-0.2-0.7,0-1l14-23.5c0.2-0.3,0.5-0.5,0.8-0.5
					c0,0,28.3-0.6,28.3-0.6c0.4,0,0.7,0.2,0.9,0.5c0.2,0.3,0.2,0.7,0,1l-4.7,8.1c-0.2,0.3-0.5,0.5-0.9,0.5c0,0-0.1,0-0.1,0
					c-0.4,0-0.7-0.3-0.9-0.7c-0.2-0.4-0.4-0.9-0.6-1.1c-0.4,0-0.8,0-1.2,0c-7.3,0-17.6,3.9-24.6,14.7c0,0.2-0.1,0.7,0.1,1.3
					c0.1,0.3,0.1,0.6-0.1,0.9s-0.5,0.4-0.8,0.5C60.3,123,50.8,123.3,50.8,123.3z M89.7,100.2c-0.1,0-0.3,0.1-0.3,0.3
					s0.1,0.3,0.3,0.3s0.3-0.1,0.3-0.3S89.9,100.2,89.7,100.2z"/>
				<path class="st4" d="M93,98.3l-4.7,8.1c0,0-0.6-1.6-1.2-1.8c-0.5,0-1-0.1-1.5-0.1c-6.5,0-17.7,3-25.5,15.3c0,0-0.4,0.9,0.1,2.1
					l-9.5,0.4l14-23.5L93,98.3 M89.7,101.8c0.7,0,1.3-0.6,1.3-1.3s-0.6-1.3-1.3-1.3c-0.7,0-1.3,0.6-1.3,1.3S89,101.8,89.7,101.8
					 M93,96.3C93,96.3,93,96.3,93,96.3l-28.3,0.6c-0.7,0-1.3,0.4-1.7,1l-14,23.5c-0.4,0.6-0.4,1.4,0,2c0.4,0.6,1,1,1.7,1
					c0,0,0.1,0,0.1,0l9.5-0.4c0.6,0,1.2-0.4,1.6-0.9s0.4-1.2,0.2-1.8c-0.1-0.2-0.1-0.4-0.1-0.6c6.7-10.4,16.6-14.1,23.6-14.1
					c0.2,0,0.4,0,0.6,0c0.1,0.2,0.2,0.3,0.2,0.5c0.3,0.7,0.9,1.2,1.7,1.3c0.1,0,0.1,0,0.2,0c0.7,0,1.4-0.4,1.7-1l4.7-8.1
					c0.4-0.6,0.4-1.4,0-2C94.4,96.6,93.7,96.3,93,96.3L93,96.3z"/>
			</g>
			<g>
				<path class="st68" d="M86.7,99.8c-0.6,0-1.2-0.5-1.2-1.1c-0.1-0.5,0-1.6,0.7-2.4c0.5-0.6,1.2-0.9,2.1-0.9c0.7,0,1.3,0.3,1.7,0.7
					c0.8,1,0.6,2.5,0.6,2.6c0,0.2-0.2,0.4-0.5,0.4c0,0-1.2,0.1-1.2,0.1c-0.1,0-0.3-0.1-0.4-0.2c-0.1-0.1-0.1-0.3-0.1-0.4
					c0.1-0.4,0-1.1-0.1-1.3c0,0,0,0-0.1,0c-0.3,0-0.3,0.1-0.4,0.2c-0.2,0.3-0.1,0.9,0,1.1c0,0.1,0,0.2,0,0.3
					C87.7,99.4,87.3,99.8,86.7,99.8L86.7,99.8z"/>
				<path class="st4" d="M88.3,95.9C88.3,95.9,88.3,95.9,88.3,95.9c2.2,0,1.8,2.7,1.8,2.7l-1.2,0.1c0,0,0.3-1.9-0.7-1.9
					c-0.1,0-0.1,0-0.2,0c-1.2,0.2-0.7,1.9-0.7,1.9c-0.1,0.4-0.4,0.6-0.6,0.6c-0.3,0-0.7-0.3-0.7-0.7C85.9,98,86.1,95.9,88.3,95.9
					 M88.3,94.9c-1.3,0-2.1,0.6-2.5,1c-0.8,0.9-0.9,2.2-0.8,2.8c0.1,0.9,0.9,1.5,1.7,1.5c0.5,0,1.1-0.2,1.4-0.9c0,0,0,0,0,0
					c0.2,0.2,0.5,0.3,0.7,0.3c0,0,0,0,0,0l1.2-0.1c0.5,0,0.9-0.4,0.9-0.9c0-0.2,0.2-1.9-0.7-3C90,95.4,89.4,94.9,88.3,94.9
					C88.3,94.9,88.3,94.9,88.3,94.9L88.3,94.9z"/>
			</g>
		</g>
	</g>
</g>
<g id="Mid_Bar">
</g>
<g id="Bottom_Bar">
</g>
</svg>
