<?xml version="1.0" encoding="utf-8"?>
<!-- Generator: Adobe Illustrator 24.1.1, SVG Export Plug-In . SVG Version: 6.00 Build 0)  -->
<svg version="1.1" xmlns="http://www.w3.org/2000/svg" xmlns:xlink="http://www.w3.org/1999/xlink" x="0px" y="0px"
	 viewBox="0 0 153.1 226.7" style="enable-background:new 0 0 153.1 226.7;" xml:space="preserve">
<style type="text/css">
	.st0{display:none;}
	.st1{fill:#FAFAFA;stroke:#D1D1D1;stroke-miterlimit:10;}
	.st2{filter:url(#Adobe_OpacityMaskFilter);}
	.st3{opacity:0.4;mask:url(#SVGID_1_);fill:url(#SVGID_2_);stroke:#FAB01B;stroke-width:1.0299;stroke-miterlimit:10;}
	.st4{fill:#FFFFFF;}
	.st5{clip-path:url(#SVGID_4_);fill:#FFFFFF;}
	.st6{clip-path:url(#SVGID_4_);fill:url(#SVGID_5_);}
	.st7{clip-path:url(#SVGID_7_);fill:#FFFFFF;}
	.st8{clip-path:url(#SVGID_7_);fill:url(#SVGID_8_);}
	.st9{clip-path:url(#SVGID_10_);fill:#FFFFFF;}
	.st10{clip-path:url(#SVGID_10_);fill:url(#SVGID_11_);}
	.st11{fill:#F2F2F2;}
	.st12{fill:#3EBFC9;}
	.st13{display:none;fill:none;stroke:#FAB01B;stroke-miterlimit:10;}
	.st14{fill:none;stroke:#FAB01B;stroke-miterlimit:10;}
	.st15{fill:#28348A;}
	.st16{fill:#74CBF3;}
	.st17{fill:#74CBF3;stroke:#28348A;stroke-width:0.9945;stroke-linecap:round;stroke-linejoin:round;stroke-miterlimit:10;}
	.st18{fill:#FFFFFF;stroke:#28348A;stroke-width:0.9945;stroke-linecap:round;stroke-linejoin:round;stroke-miterlimit:10;}
	.st19{fill:#267792;}
	.st20{fill:none;stroke:#28348A;stroke-width:1.0089;stroke-linecap:round;stroke-linejoin:round;stroke-miterlimit:10;}
	.st21{fill:none;stroke:#28348A;stroke-width:0.6415;stroke-miterlimit:10;}
	.st22{fill:#28348A;stroke:#F2F2F2;stroke-width:0.6415;stroke-miterlimit:10;}
	.st23{fill:none;stroke:#74CBF3;stroke-width:0.6415;stroke-miterlimit:10;}
	.st24{fill:none;}
	.st25{fill:none;stroke:#28348A;stroke-width:0.9945;stroke-linecap:round;stroke-linejoin:round;stroke-miterlimit:10;}
	.st26{fill:#FAFAFA;}
	.st27{fill:none;stroke:#D1D1D1;stroke-miterlimit:10;}
	.st28{fill:none;stroke:#000000;stroke-miterlimit:10;}
	.st29{fill:#FBB01B;}
	.st30{fill:none;stroke:#FAB01B;stroke-width:0.331;stroke-miterlimit:10;}
	.st31{fill:#FAB01B;}
	.st32{fill:#277893;}
	.st33{fill:#BFCAD7;}
	.st34{fill:none;stroke:#FAB01B;stroke-width:4.5263;stroke-miterlimit:10;}
	.st35{fill:none;stroke:#FAB01B;stroke-width:11;stroke-linecap:round;stroke-miterlimit:10;}
	.st36{fill:none;stroke:#FAB01B;stroke-width:3.0275;stroke-miterlimit:10;}
	.st37{fill:none;stroke:#FAB01B;stroke-width:7.3576;stroke-linecap:round;stroke-miterlimit:10;}
	.st38{filter:url(#Adobe_OpacityMaskFilter_1_);}
	.st39{mask:url(#SVGID_12_);fill:#FAFAFA;stroke:#FBB01B;stroke-miterlimit:10;}
	.st40{clip-path:url(#SVGID_14_);fill:#FFFFFF;}
	.st41{clip-path:url(#SVGID_14_);fill:url(#SVGID_15_);}
	.st42{clip-path:url(#SVGID_17_);fill:#FFFFFF;}
	.st43{clip-path:url(#SVGID_17_);fill:url(#SVGID_18_);}
	.st44{fill:none;stroke:#D4D4D4;stroke-miterlimit:10;}
	.st45{fill:url(#SVGID_19_);stroke:#E0E0E0;stroke-miterlimit:10;}
	.st46{fill:url(#SVGID_20_);stroke:#E0E0E0;stroke-width:0.9895;stroke-miterlimit:10;}
	.st47{fill:url(#SVGID_21_);}
	.st48{fill:url(#SVGID_22_);}
	.st49{fill:url(#SVGID_23_);}
	.st50{fill:none;stroke:#277893;stroke-miterlimit:10;}
	.st51{fill:url(#SVGID_24_);}
	.st52{fill:url(#SVGID_25_);stroke:#E0E0E0;stroke-miterlimit:10;}
	.st53{fill:url(#SVGID_26_);}
	.st54{fill:url(#SVGID_27_);}
	.st55{fill:url(#SVGID_28_);}
	.st56{fill:url(#SVGID_29_);}
	.st57{fill:#2E5766;}
	.st58{fill:#E8E8E8;}
	.st59{fill:#D1D1D1;}
	.st60{fill:none;stroke:#D1D1D1;stroke-width:0.5263;stroke-miterlimit:10;}
	.st61{fill:#F0D297;}
	.st62{fill:none;stroke:#F0D297;stroke-width:0.5263;stroke-miterlimit:10;}
	.st63{fill:#EAEAEA;}
	.st64{fill:#E2E2E2;}
	.st65{fill:#A0B6C4;}
	.st66{fill:#FFFFFF;stroke:#999999;stroke-width:0.5;stroke-miterlimit:10;}
	.st67{fill:none;stroke:#D1D1D1;stroke-width:0.8159;stroke-miterlimit:10;}
	.st68{fill:#A0B6C4;stroke:#CCCCCC;stroke-miterlimit:10;}
	.st69{fill:#A0B6C4;stroke:#CCCCCC;stroke-width:0.1088;stroke-miterlimit:10;}
	.st70{fill:none;stroke:#277893;stroke-width:0.4211;stroke-miterlimit:10;}
</style>
<g id="Grid" class="st0">
</g>
<g id="Bakcground">
</g>
<g id="Top_Bar">
</g>
<g id="Icones">
</g>
<g id="Camada_2">
	<g>
		<path class="st32" d="M64.7,99.3l1.4,10.5c0.2,1.1,0.8,2.1,1.7,2.8c0.8,0.6,1.9,0.9,3,0.8h0c2.3-0.3,3.8-2.4,3.5-4.7l-1.4-10.5
			c-0.3-2.3-2.4-3.8-4.7-3.5c-0.2,0-0.3,0.1-0.5,0.1C65.8,95.2,64.4,97.2,64.7,99.3z"/>
		<path class="st32" d="M75.9,97.3l0.5,3.8l0.9,6.7c0.3,2.3,2.4,3.8,4.7,3.5c2.3-0.3,3.8-2.4,3.5-4.7l-1.4-10.5
			c-0.3-2.3-2.4-3.8-4.7-3.5c-1.3,0.2-2.4,1-3,2.1C76,95.5,75.8,96.4,75.9,97.3z"/>
		<path class="st32" d="M99.4,121.1c0,0-1.3-13.4-1.3-13.8l-1.4-10.5c-0.3-2.3-2.4-3.8-4.7-3.5c-2.3,0.3-3.8,2.4-3.5,4.7l1.4,10.5
			c0.1,0.5,1,5.9,1,5.9s2.6,15.7-12.3,17.8c-2,0.2-3.2,0.7-4.7,0.5c-4-0.5-6.8-2-8.4-4.5c-1.2-1.9-2.1-7.8-2.3-8.5
			c-0.3-2.2-0.7-4.2-0.9-5.9c-0.8-6.1-3.3-23-3.3-23h0l-1-7.3c-0.3-2.3-2.4-3.8-4.7-3.5c-2.3,0.3-3.8,2.4-3.5,4.7l1,7.3l0,0l0.4,3.2
			c0,0.3,0.1,0.6,0.2,0.8l2.1,13.2c-1.2-0.3-2.6-0.1-3.7,0.8c-1.8,1.4-2.1,4-0.6,5.8l6.6,8.2c0,0,0,0,0,0l0.2,1c0,0,0.1,2.1,1.1,4.8
			c1,2.6,2.9,5.9,6.6,8.2c3.4,2.2,8.4,3.7,15.6,3.2C96.3,139.6,99.8,125.7,99.4,121.1z"/>
	</g>
</g>
<g id="Mid_Bar">
</g>
<g id="Bottom_Bar">
</g>
</svg>
