<svg xmlns="http://www.w3.org/2000/svg" viewBox="0 0 47.97 30.93"><defs><style>.cls-1,.cls-4{fill:#fff;}.cls-2{fill:#74cbf3;}.cls-2,.cls-3,.cls-4{stroke:#28348a;stroke-linecap:round;stroke-linejoin:round;stroke-width:0.99px;}.cls-3{fill:none;}</style></defs><g id="Camada_2" data-name="Camada 2"><g id="Icones"><path class="cls-1" d="M3.86,30.43H44.11a3.46,3.46,0,0,0,3.36-3.38H.5A3.46,3.46,0,0,0,3.86,30.43Z"/><path class="cls-2" d="M41.65.5H6.32A2.06,2.06,0,0,0,4.25,2.56V25a2.06,2.06,0,0,0,2.07,2.06H41.65A2.07,2.07,0,0,0,43.72,25V2.56A2.07,2.07,0,0,0,41.65.5Zm-.27,24.15H6.59V2.9H41.38Z"/><path class="cls-3" d="M3.86,30.43H44.11a3.46,3.46,0,0,0,3.36-3.38H.5A3.46,3.46,0,0,0,3.86,30.43Z"/><rect class="cls-3" x="20.06" y="27.05" width="7.86" height="1.69"/><rect class="cls-4" x="6.59" y="2.86" width="34.79" height="21.75"/></g></g></svg>