<?xml version="1.0" encoding="utf-8"?>
<!-- Generator: Adobe Illustrator 24.1.1, SVG Export Plug-In . SVG Version: 6.00 Build 0)  -->
<svg version="1.1" xmlns="http://www.w3.org/2000/svg" xmlns:xlink="http://www.w3.org/1999/xlink" x="0px" y="0px"
	 viewBox="0 0 153.1 226.7" style="enable-background:new 0 0 153.1 226.7;" xml:space="preserve">
<style type="text/css">
	.st0{display:none;}
	.st1{fill:#FAFAFA;stroke:#D1D1D1;stroke-miterlimit:10;}
	.st2{filter:url(#Adobe_OpacityMaskFilter);}
	.st3{opacity:0.4;mask:url(#SVGID_1_);fill:url(#SVGID_2_);stroke:#FAB01B;stroke-width:1.0299;stroke-miterlimit:10;}
	.st4{fill:#FFFFFF;}
	.st5{clip-path:url(#SVGID_4_);fill:#FFFFFF;}
	.st6{clip-path:url(#SVGID_4_);fill:url(#SVGID_5_);}
	.st7{clip-path:url(#SVGID_7_);fill:#FFFFFF;}
	.st8{clip-path:url(#SVGID_7_);fill:url(#SVGID_8_);}
	.st9{clip-path:url(#SVGID_10_);fill:#FFFFFF;}
	.st10{clip-path:url(#SVGID_10_);fill:url(#SVGID_11_);}
	.st11{fill:#F2F2F2;}
	.st12{fill:#3EBFC9;}
	.st13{display:none;fill:none;stroke:#FAB01B;stroke-miterlimit:10;}
	.st14{fill:none;stroke:#FAB01B;stroke-miterlimit:10;}
	.st15{fill:#28348A;}
	.st16{fill:#74CBF3;}
	.st17{fill:#74CBF3;stroke:#28348A;stroke-width:0.9945;stroke-linecap:round;stroke-linejoin:round;stroke-miterlimit:10;}
	.st18{fill:#FFFFFF;stroke:#28348A;stroke-width:0.9945;stroke-linecap:round;stroke-linejoin:round;stroke-miterlimit:10;}
	.st19{fill:#267792;}
	.st20{fill:none;stroke:#28348A;stroke-width:1.0089;stroke-linecap:round;stroke-linejoin:round;stroke-miterlimit:10;}
	.st21{fill:none;stroke:#28348A;stroke-width:0.6415;stroke-miterlimit:10;}
	.st22{fill:#28348A;stroke:#F2F2F2;stroke-width:0.6415;stroke-miterlimit:10;}
	.st23{fill:none;stroke:#74CBF3;stroke-width:0.6415;stroke-miterlimit:10;}
	.st24{fill:none;}
	.st25{fill:none;stroke:#28348A;stroke-width:0.9945;stroke-linecap:round;stroke-linejoin:round;stroke-miterlimit:10;}
	.st26{fill:none;stroke:#FFFFFF;stroke-width:2;stroke-miterlimit:10;}
	.st27{fill:#FAFAFA;}
	.st28{fill:none;stroke:#D1D1D1;stroke-miterlimit:10;}
	.st29{fill:none;stroke:#000000;stroke-miterlimit:10;}
	.st30{fill:#FBB01B;}
	.st31{fill:none;stroke:#FAB01B;stroke-width:0.331;stroke-miterlimit:10;}
	.st32{fill:#FAB01B;}
	.st33{fill:#277893;}
	.st34{fill:#BFCAD7;}
	.st35{fill:none;stroke:#FAB01B;stroke-width:4.5263;stroke-miterlimit:10;}
	.st36{fill:none;stroke:#FAB01B;stroke-width:11;stroke-linecap:round;stroke-miterlimit:10;}
	.st37{fill:none;stroke:#FAB01B;stroke-width:3.0275;stroke-miterlimit:10;}
	.st38{fill:none;stroke:#FAB01B;stroke-width:7.3576;stroke-linecap:round;stroke-miterlimit:10;}
	.st39{filter:url(#Adobe_OpacityMaskFilter_1_);}
	.st40{mask:url(#SVGID_12_);fill:#FAFAFA;stroke:#FBB01B;stroke-miterlimit:10;}
	.st41{clip-path:url(#SVGID_14_);fill:#FFFFFF;}
	.st42{clip-path:url(#SVGID_14_);fill:url(#SVGID_15_);}
	.st43{clip-path:url(#SVGID_17_);fill:#FFFFFF;}
	.st44{clip-path:url(#SVGID_17_);fill:url(#SVGID_18_);}
	.st45{fill:none;stroke:#D4D4D4;stroke-miterlimit:10;}
	.st46{fill:url(#SVGID_19_);stroke:#E0E0E0;stroke-miterlimit:10;}
	.st47{fill:url(#SVGID_20_);stroke:#E0E0E0;stroke-width:0.9895;stroke-miterlimit:10;}
	.st48{fill:url(#SVGID_21_);}
	.st49{fill:url(#SVGID_22_);}
	.st50{fill:url(#SVGID_23_);}
	.st51{fill:none;stroke:#277893;stroke-miterlimit:10;}
	.st52{fill:url(#SVGID_24_);}
	.st53{fill:url(#SVGID_25_);stroke:#E0E0E0;stroke-miterlimit:10;}
	.st54{fill:url(#SVGID_26_);}
	.st55{fill:url(#SVGID_27_);}
	.st56{fill:url(#SVGID_28_);}
	.st57{fill:url(#SVGID_29_);}
	.st58{fill:#2E5766;}
	.st59{fill:#E8E8E8;}
	.st60{fill:#D1D1D1;}
	.st61{fill:none;stroke:#D1D1D1;stroke-width:0.5263;stroke-miterlimit:10;}
	.st62{fill:#F0D297;}
	.st63{fill:none;stroke:#F0D297;stroke-width:0.5263;stroke-miterlimit:10;}
	.st64{fill:#EAEAEA;}
	.st65{fill:#E2E2E2;}
	.st66{fill:#A0B6C4;}
	.st67{fill:#FFFFFF;stroke:#999999;stroke-width:0.5;stroke-miterlimit:10;}
	.st68{fill:none;stroke:#D1D1D1;stroke-width:0.8159;stroke-miterlimit:10;}
	.st69{fill:#A0B6C4;stroke:#CCCCCC;stroke-miterlimit:10;}
	.st70{fill:#A0B6C4;stroke:#CCCCCC;stroke-width:0.1088;stroke-miterlimit:10;}
	.st71{fill:none;stroke:#277893;stroke-width:0.4211;stroke-miterlimit:10;}
</style>
<g id="Grid" class="st0">
</g>
<g id="Bakcground">
</g>
<g id="Top_Bar">
</g>
<g id="Icones">
</g>
<g id="Camada_2">
	<g>
		<path class="st26" d="M64.7,99.3l1.4,10.5c0.2,1.1,0.8,2.1,1.7,2.8c0.8,0.6,1.9,0.9,3,0.8h0c2.3-0.3,3.8-2.4,3.5-4.7l-1.4-10.5
			c-0.3-2.3-2.4-3.8-4.7-3.5c-0.2,0-0.3,0.1-0.5,0.1C65.8,95.2,64.4,97.2,64.7,99.3z"/>
		<path class="st26" d="M75.9,97.3l0.5,3.8l0.9,6.7c0.3,2.3,2.4,3.8,4.7,3.5c2.3-0.3,3.8-2.4,3.5-4.7l-1.4-10.5
			c-0.3-2.3-2.4-3.8-4.7-3.5c-1.3,0.2-2.4,1-3,2.1C76,95.5,75.8,96.4,75.9,97.3z"/>
		<path class="st26" d="M99.4,121.1c0,0-1.3-13.4-1.3-13.8l-1.4-10.5c-0.3-2.3-2.4-3.8-4.7-3.5c-2.3,0.3-3.8,2.4-3.5,4.7l1.4,10.5
			c0.1,0.5,1,5.9,1,5.9s2.6,15.7-12.3,17.8c-2,0.2-3.2,0.7-4.7,0.5c-4-0.5-6.8-2-8.4-4.5c-1.2-1.9-2.1-7.8-2.3-8.5
			c-0.3-2.2-0.7-4.2-0.9-5.9c-0.8-6.1-3.3-23-3.3-23h0l-1-7.3c-0.3-2.3-2.4-3.8-4.7-3.5c-2.3,0.3-3.8,2.4-3.5,4.7l1,7.3l0,0l0.4,3.2
			c0,0.3,0.1,0.6,0.2,0.8l2.1,13.2c-1.2-0.3-2.6-0.1-3.7,0.8c-1.8,1.4-2.1,4-0.6,5.8l6.6,8.2c0,0,0,0,0,0l0.2,1c0,0,0.1,2.1,1.1,4.8
			c1,2.6,2.9,5.9,6.6,8.2c3.4,2.2,8.4,3.7,15.6,3.2C96.3,139.6,99.8,125.7,99.4,121.1z"/>
	</g>
	<g>
		<g>
			<g>
				<path class="st4" d="M70.2,114.8c-1.2,0-2.4-0.4-3.3-1.1c-1.2-0.9-2-2.3-2.2-3.8l-1.4-10.5c-0.4-2.8,1.4-5.5,4.2-6.2
					c0.3-0.1,0.4-0.1,0.6-0.1c3.1-0.4,5.9,1.7,6.3,4.8l1.4,10.5c0.2,1.5-0.2,3-1.1,4.2c-0.9,1.2-2.2,2-3.7,2.2
					C70.7,114.8,70.5,114.8,70.2,114.8z"/>
			</g>
			<g>
				<path class="st4" d="M81.4,112.9c-1.2,0-2.4-0.4-3.4-1.2c-1.2-0.9-2-2.2-2.2-3.7l-1.4-10.5c-0.2-1.2,0.1-2.4,0.7-3.5
					c0.9-1.6,2.4-2.6,4.1-2.8c1.5-0.2,3,0.2,4.2,1.1c1.2,0.9,2,2.2,2.2,3.7l1.4,10.5c0.4,3.1-1.7,5.9-4.8,6.3
					C81.9,112.9,81.7,112.9,81.4,112.9z"/>
			</g>
			<g>
				<path class="st4" d="M76.6,142.8c-5.5,0-10.2-1.2-13.8-3.6c-4.1-2.7-6.2-6.4-7.2-9c-1-2.6-1.1-4.7-1.2-5.2l-0.1-0.5l-6.4-7.9
					c-0.9-1.2-1.4-2.6-1.2-4.1c0.2-1.5,0.9-2.8,2.1-3.8c0.8-0.7,1.8-1.1,2.8-1.2l-1.8-11.2c-0.1-0.3-0.2-0.6-0.2-1l-1.4-10.5
					c-0.2-1.5,0.2-3,1.1-4.2c0.9-1.2,2.2-2,3.7-2.2c1.5-0.2,3,0.2,4.2,1.1c1.2,0.9,2,2.2,2.2,3.7l1,7.3c0,0.1,2.6,17,3.3,23
					c0.1,0.9,0.3,1.9,0.4,3c0.1,0.9,0.3,1.8,0.4,2.8c0.1,0.3,0.2,0.8,0.4,1.7c0.3,1.7,1,5.2,1.8,6.3c1.3,2.1,3.7,3.3,7.3,3.8
					c0.8,0.1,1.5,0,2.5-0.2c0.6-0.1,1.2-0.2,1.9-0.3c3.8-0.5,6.7-2.1,8.6-4.6c3.5-4.7,2.4-11.4,2.4-11.4c-0.1-0.5-0.9-5.4-1-5.9
					l-1.4-10.5c-0.2-1.5,0.2-3,1.1-4.2c0.9-1.2,2.2-2,3.7-2.2c3.1-0.4,5.9,1.7,6.3,4.8l1.4,10.5c0,0.4,1,10.7,1.3,13.8l0,0
					c0.5,6.1-4.1,20.1-21.5,21.7C78.4,142.7,77.5,142.8,76.6,142.8z"/>
			</g>
		</g>
		<ellipse class="st4" cx="69.6" cy="112.2" rx="17.4" ry="15.3"/>
		<ellipse class="st4" cx="81.9" cy="112.2" rx="14.7" ry="15.3"/>
		<ellipse class="st4" cx="79.1" cy="118.7" rx="17.4" ry="15.3"/>
		<g>
			<path class="st33" d="M70.2,114.3c-1.1,0-2.2-0.3-3-1c-1.1-0.8-1.9-2.1-2-3.4l-1.4-10.5c-0.3-2.6,1.3-5,3.8-5.7l0.1,0
				c0.2,0,0.3-0.1,0.5-0.1c0.2,0,0.5,0,0.7,0c2.6,0,4.7,1.9,5.1,4.4l1.4,10.5c0.2,1.4-0.2,2.7-1,3.8c-0.8,1.1-2,1.8-3.4,2
				C70.7,114.3,70.4,114.3,70.2,114.3L70.2,114.3z"/>
			<path class="st4" d="M68.8,94.6c2,0,3.8,1.5,4.1,3.6l1.4,10.5c0.3,2.3-1.3,4.4-3.5,4.7c-0.2,0-0.4,0-0.6,0
				c-0.9,0-1.8-0.3-2.5-0.8c-0.9-0.6-1.5-1.6-1.7-2.8l-1.4-10.5c-0.3-2.1,1.1-4,3.1-4.5c0.2,0,0.3-0.1,0.5-0.1
				C68.4,94.6,68.6,94.6,68.8,94.6 M68.8,92.6c-0.3,0-0.6,0-0.8,0.1c-0.3,0-0.5,0.1-0.6,0.1l-0.1,0c-3,0.8-5,3.7-4.6,6.8l1.4,10.5
				c0.2,1.6,1.1,3.1,2.4,4.1c1.1,0.8,2.3,1.2,3.6,1.2c0.3,0,0.6,0,0.8-0.1c1.6-0.2,3.1-1.1,4.1-2.4s1.4-2.9,1.2-4.5l-1.4-10.5
				C74.4,94.8,71.8,92.6,68.8,92.6L68.8,92.6z"/>
		</g>
		<g>
			<path class="st33" d="M81.4,112.4c-2.6,0-4.7-1.9-5.1-4.4l-1.4-10.5c-0.1-1.1,0.1-2.2,0.6-3.2c0.8-1.4,2.2-2.4,3.8-2.6
				c0.2,0,0.5,0,0.7,0c2.6,0,4.7,1.9,5.1,4.4l1.4,10.5c0.2,1.4-0.2,2.7-1,3.8c-0.8,1.1-2,1.8-3.4,2
				C81.9,112.4,81.6,112.4,81.4,112.4C81.4,112.4,81.4,112.4,81.4,112.4z"/>
			<path class="st4" d="M80,92.6c2,0,3.8,1.5,4.1,3.6l1.4,10.5c0.3,2.3-1.3,4.4-3.5,4.7c-0.2,0-0.4,0-0.6,0c-2,0-3.8-1.5-4.1-3.6
				l-0.9-6.7l-0.5-3.8c-0.1-0.9,0.1-1.8,0.5-2.6c0.6-1.1,1.7-1.9,3-2.1C79.6,92.6,79.8,92.6,80,92.6 M80,90.6c-0.3,0-0.6,0-0.8,0.1
				c-1.9,0.3-3.5,1.4-4.5,3.1c-0.7,1.2-0.9,2.5-0.8,3.8l0.5,3.8l0.9,6.7c0.4,3,3,5.3,6.1,5.3c0.3,0,0.6,0,0.8-0.1
				c3.4-0.5,5.7-3.6,5.3-6.9l-1.4-10.5C85.7,92.9,83,90.6,80,90.6L80,90.6z"/>
		</g>
		<g>
			<path class="st33" d="M76.5,142.3c-5.4,0-10-1.2-13.5-3.5c-4-2.6-6-6.2-7-8.7c-1-2.6-1.1-4.6-1.1-5l-0.1-0.6l-6.5-8
				c-0.9-1.1-1.3-2.4-1.1-3.8c0.1-1.4,0.8-2.6,1.9-3.5c0.9-0.7,2-1.1,3.1-1.1l-1.9-11.8c-0.1-0.3-0.2-0.6-0.2-0.9l-1.4-10.5
				c-0.4-2.8,1.6-5.4,4.4-5.8c0.2,0,0.5,0,0.7,0c2.6,0,4.7,1.9,5.1,4.4l1,7.3l0,0c0.1,0.5,0.3,1.4,0.5,2.7c0.3,1.7,0.6,4,1,6.5
				c0.7,4.6,1.5,10.6,1.9,13.8c0.1,0.9,0.3,1.9,0.4,3c0.1,0.9,0.3,1.9,0.4,2.8c0.1,0.3,0.2,0.8,0.4,1.7c0.4,1.8,1.1,5.3,1.8,6.5
				c1.4,2.2,3.9,3.5,7.7,4c0.2,0,0.4,0,0.6,0c0.6,0,1.2-0.1,2-0.2c0.6-0.1,1.2-0.2,1.9-0.3c3.9-0.6,6.9-2.2,8.9-4.8
				c3.6-4.9,2.5-11.7,2.5-11.8c-0.1-0.5-0.9-5.4-1-5.9l-1.4-10.5c-0.2-1.4,0.2-2.7,1-3.8c0.8-1.1,2-1.8,3.4-2c0.2,0,0.5,0,0.7,0
				c2.6,0,4.7,1.9,5.1,4.4l1.4,10.5c0,0.4,1.1,11.6,1.3,13.8c0.5,6-4.1,19.6-21.1,21.2C78.3,142.2,77.4,142.3,76.5,142.3L76.5,142.3
				z"/>
			<path class="st4" d="M53.8,80c2,0,3.8,1.5,4.1,3.6l1,7.3c0,0,2.6,16.9,3.3,23c0.2,1.7,0.6,3.8,0.9,5.9c0.3,0.6,1.1,6.6,2.3,8.5
				c1.6,2.5,4.4,3.9,8.4,4.5c0.3,0,0.5,0.1,0.8,0.1c1.2,0,2.3-0.4,4-0.6c14.9-2.1,12.3-17.8,12.3-17.8s-0.9-5.4-1-5.9L88.4,98
				c-0.3-2.3,1.3-4.4,3.5-4.7c0.2,0,0.4,0,0.6,0c2,0,3.8,1.5,4.1,3.6l1.4,10.5c0,0.4,1.3,13.8,1.3,13.8c0.4,4.6-3,18.5-20.2,20.1
				c-0.9,0.1-1.8,0.1-2.7,0.1c-5.8,0-10-1.4-13-3.3c-3.7-2.4-5.6-5.6-6.6-8.2c-1-2.7-1.1-4.8-1.1-4.8l-0.2-1c0,0,0,0,0,0l-6.6-8.2
				c-1.4-1.8-1.1-4.4,0.6-5.8c0.8-0.6,1.7-0.9,2.6-0.9c0.4,0,0.7,0,1.1,0.1L51.3,96c-0.1-0.3-0.2-0.5-0.2-0.8L50.7,92l0,0l-1-7.3
				c-0.3-2.3,1.3-4.4,3.5-4.7C53.4,80,53.6,80,53.8,80 M53.8,78L53.8,78L53.8,78c-0.3,0-0.6,0-0.8,0.1c-1.6,0.2-3.1,1.1-4.1,2.4
				c-1,1.3-1.4,2.9-1.2,4.5l1,7.3l0,0l0,0l0.4,3.1c0,0.3,0.1,0.7,0.2,1l1.7,10.7c-0.9,0.2-1.8,0.6-2.6,1.2c-1.3,1-2.1,2.5-2.2,4.1
				c-0.2,1.6,0.3,3.2,1.3,4.5l6.3,7.8l0.1,0.3c0,0.6,0.2,2.7,1.2,5.3c1,2.7,3.1,6.5,7.3,9.2c3.7,2.4,8.4,3.6,14,3.6
				c0.9,0,1.8,0,2.8-0.1l0,0l0,0c17.7-1.7,22.5-16,22-22.2c-0.4-4.1-1.3-13.5-1.3-13.9l-1.4-10.5c-0.4-3-3-5.3-6.1-5.3
				c-0.3,0-0.6,0-0.8,0.1c-1.6,0.2-3.1,1.1-4.1,2.4c-1,1.3-1.4,2.9-1.2,4.5l1.4,10.5c0.1,0.5,0.9,5.1,1,6c0,0,1,6.5-2.3,11
				c-1.8,2.4-4.6,3.9-8.3,4.4c-0.7,0.1-1.3,0.2-1.9,0.3c-0.7,0.1-1.3,0.2-1.8,0.2c-0.2,0-0.3,0-0.5,0c-3.4-0.5-5.7-1.6-6.9-3.5
				c-0.7-1-1.4-4.6-1.7-6.2c-0.2-0.9-0.3-1.4-0.4-1.7c-0.1-1-0.3-1.9-0.4-2.8c-0.2-1-0.3-2-0.4-2.9c-0.8-6.1-3.3-22.9-3.3-23.1
				l-1-7.3C59.5,80.2,56.9,78,53.8,78L53.8,78L53.8,78z"/>
		</g>
	</g>
</g>
<g id="Mid_Bar">
</g>
<g id="Bottom_Bar">
</g>
</svg>
