<svg xmlns="http://www.w3.org/2000/svg" viewBox="0 0 359.02 165.99"><defs><style>.cls-1{font-size:73.25px;fill:#2e5766;font-family:Arial-BoldMT, Arial;font-weight:700;}.cls-2{fill:#267792;}.cls-3{fill:none;stroke:#fab01b;stroke-miterlimit:10;stroke-width:3.03px;}.cls-4{fill:#fab01b;}.cls-5{fill:#fbb01b;}</style></defs><g id="Camada_2" data-name="Camada 2"><g id="Camada_2-2" data-name="Camada 2"><text class="cls-1" transform="translate(94.43 62.84)">Dash<tspan class="cls-2"><tspan x="0" y="75.58">mLearn</tspan></tspan></text><circle class="cls-3" cx="83.5" cy="36.57" r="7.07"/><rect class="cls-4" x="16.86" y="62.17" width="21.35" height="2.9"/><rect class="cls-4" x="20.19" y="48.75" width="14.7" height="2.9" transform="translate(-22.66 77.74) rotate(-90)"/><rect class="cls-4" x="26.09" y="35.12" width="14.16" height="2.9" transform="translate(66.35 73.15) rotate(180)"/><rect class="cls-4" x="44.45" y="35.12" width="14.16" height="2.9" transform="translate(103.06 73.15) rotate(180)"/><rect class="cls-4" x="62.8" y="35.12" width="14.16" height="2.9" transform="translate(139.76 73.15) rotate(180)"/><path class="cls-5" d="M48.67,71c-.32-.27-.66-.52-1-.76A13,13,0,0,0,40.38,68H13.06A13.09,13.09,0,0,0,0,81v54H0a13,13,0,0,0,2.24,7.29,13.17,13.17,0,0,0,3.53,3.53,13,13,0,0,0,7.29,2.24H40.38a13.1,13.1,0,0,0,13.06-13.06V81h0A13,13,0,0,0,48.67,71Zm-3.88,62.59a6.33,6.33,0,0,1-6.31,6.32H15a6,6,0,0,1-1.27-.13,6.32,6.32,0,0,1-3.6-2.17,5.6,5.6,0,0,1-.36-.49,6.23,6.23,0,0,1-1-2.26,6.59,6.59,0,0,1-.13-1.27v-51A6.34,6.34,0,0,1,15,76.22H38.48c.21,0,.43,0,.64,0a6.34,6.34,0,0,1,5.64,5.64c0,.21,0,.43,0,.64v51Z"/></g></g></svg>