<svg xmlns="http://www.w3.org/2000/svg" viewBox="0 0 32.03 27.06"><defs><style>.cls-1{fill:#28348a;}.cls-2{fill:#f2f2f2;}.cls-3{fill:#74cbf3;}</style></defs><g id="Camada_2" data-name="Camada 2"><g id="Top_Bar" data-name="Top Bar"><path class="cls-1" d="M27.59,9.52V6.6a2.26,2.26,0,0,0-2.2-2.3H8.67v-2A2.25,2.25,0,0,0,6.48,0H2.28A2.25,2.25,0,0,0,.09,2.3V24.85h27.5Z"/><path class="cls-2" d="M5.62,9.8V8.19a1.1,1.1,0,0,1,1.1-1.1h18a1.09,1.09,0,0,1,1.09,1.1V9.8Z"/><path class="cls-3" d="M.07,24.31l3.5-13.22A2.2,2.2,0,0,1,5.69,9.46H29.83a2.19,2.19,0,0,1,2.1,2.84L27.82,25.52a2.2,2.2,0,0,1-2.1,1.54H2.19A2.2,2.2,0,0,1,.07,24.31Z"/></g></g></svg>