<svg xmlns="http://www.w3.org/2000/svg" viewBox="0 0 26.21 35.39"><defs><style>.cls-1{fill:#fff;}.cls-2{fill:#28348a;}.cls-3,.cls-4{fill:none;}.cls-4{stroke:#74cbf3;stroke-miterlimit:10;stroke-width:0.64px;}</style></defs><g id="Camada_2" data-name="Camada 2"><g id="Icones"><rect class="cls-1" x="0.31" y="3.01" width="25.62" height="32.03" rx="1.45"/><path class="cls-2" d="M9.41,5.5h7.44a2.21,2.21,0,0,1,2.21,2.21v0a0,0,0,0,1,0,0H7.2a0,0,0,0,1,0,0v0A2.21,2.21,0,0,1,9.41,5.5Z"/><rect class="cls-3" x="10.09" y="3.4" width="6.02" height="1.12"/><path class="cls-3" d="M9.45,5.16V3.4H2A1.34,1.34,0,0,0,.64,4.73V33.42A1.34,1.34,0,0,0,2,34.75H24.24a1.34,1.34,0,0,0,1.33-1.33V4.73A1.34,1.34,0,0,0,24.24,3.4H16.76V5.16Z"/><path class="cls-3" d="M13.13,0h-.05a3,3,0,0,0-3,2.76h6A3,3,0,0,0,13.13,0Z"/><path class="cls-3" d="M16.12,3.4V3a1.81,1.81,0,0,0,0-.23,3,3,0,0,0-3-2.76h-.05a3,3,0,0,0-3,2.76,1.81,1.81,0,0,0,0,.23V4.52h6Z"/><path class="cls-3" d="M9.45,5.16V3.4H2A1.34,1.34,0,0,0,.64,4.73V33.42A1.34,1.34,0,0,0,2,34.75H24.24a1.34,1.34,0,0,0,1.33-1.33V4.73A1.34,1.34,0,0,0,24.24,3.4H16.76V5.16Z"/><path class="cls-2" d="M24.24,2.76h-7.5c0,.08,0,.15,0,.23V3.4h7.48a1.34,1.34,0,0,1,1.33,1.33V33.42a1.34,1.34,0,0,1-1.33,1.33H2A1.34,1.34,0,0,1,.64,33.42V4.73A1.34,1.34,0,0,1,2,3.4H9.45V3a1.81,1.81,0,0,1,0-.23H2a2,2,0,0,0-2,2V33.42a2,2,0,0,0,2,2H24.24a2,2,0,0,0,2-2V4.73A2,2,0,0,0,24.24,2.76Z"/><rect class="cls-4" x="4.74" y="10.48" width="5.53" height="5.53"/><rect class="cls-4" x="4.74" y="17.67" width="5.53" height="5.53"/><rect class="cls-4" x="4.74" y="24.85" width="5.53" height="5.53"/><line class="cls-4" x1="12.4" y1="11.41" x2="23.28" y2="11.41"/><line class="cls-4" x1="12.4" y1="13.25" x2="18.35" y2="13.25"/><line class="cls-4" x1="12.4" y1="17.75" x2="23.28" y2="17.75"/><line class="cls-4" x1="12.4" y1="21.21" x2="23.28" y2="21.21"/><line class="cls-4" x1="12.4" y1="22.85" x2="23.28" y2="22.85"/><line class="cls-4" x1="12.4" y1="19.58" x2="18.35" y2="19.58"/><line class="cls-4" x1="12.4" y1="28.53" x2="23.28" y2="28.53"/><line class="cls-4" x1="12.4" y1="26.7" x2="18.35" y2="26.7"/><path class="cls-2" d="M16.09,2.76a3,3,0,0,0-3-2.76h-.05a3,3,0,0,0-3,2.76,1.81,1.81,0,0,0,0,.23V4.52h6V3A1.81,1.81,0,0,0,16.09,2.76Zm-3,.25a.83.83,0,0,1,0-1.66.83.83,0,1,1,0,1.66Z"/></g></g></svg>