<?xml version="1.0" encoding="utf-8"?>
<!-- Generator: Adobe Illustrator 24.1.1, SVG Export Plug-In . SVG Version: 6.00 Build 0)  -->
<svg version="1.1" xmlns="http://www.w3.org/2000/svg" xmlns:xlink="http://www.w3.org/1999/xlink" x="0px" y="0px"
	 viewBox="0 0 344.9 226.7" style="enable-background:new 0 0 344.9 226.7;" xml:space="preserve">
<style type="text/css">
	.st0{display:none;}
	.st1{fill:#FAFAFA;stroke:#D1D1D1;stroke-miterlimit:10;}
	.st2{filter:url(#Adobe_OpacityMaskFilter);}
	.st3{opacity:0.4;mask:url(#SVGID_1_);fill:url(#SVGID_2_);stroke:#FAB01B;stroke-width:1.0299;stroke-miterlimit:10;}
	.st4{fill:#FFFFFF;}
	.st5{clip-path:url(#SVGID_4_);fill:#FFFFFF;}
	.st6{clip-path:url(#SVGID_4_);fill:url(#SVGID_5_);}
	.st7{clip-path:url(#SVGID_7_);fill:#FFFFFF;}
	.st8{clip-path:url(#SVGID_7_);fill:url(#SVGID_8_);}
	.st9{clip-path:url(#SVGID_10_);fill:#FFFFFF;}
	.st10{clip-path:url(#SVGID_10_);fill:url(#SVGID_11_);}
	.st11{fill:#F2F2F2;}
	.st12{fill:#3EBFC9;}
	.st13{display:none;fill:none;stroke:#FAB01B;stroke-miterlimit:10;}
	.st14{fill:none;stroke:#FAB01B;stroke-miterlimit:10;}
	.st15{fill:#28348A;}
	.st16{fill:#74CBF3;}
	.st17{fill:#74CBF3;stroke:#28348A;stroke-width:0.9945;stroke-linecap:round;stroke-linejoin:round;stroke-miterlimit:10;}
	.st18{fill:#FFFFFF;stroke:#28348A;stroke-width:0.9945;stroke-linecap:round;stroke-linejoin:round;stroke-miterlimit:10;}
	.st19{fill:#267792;}
	.st20{fill:none;stroke:#28348A;stroke-width:1.0089;stroke-linecap:round;stroke-linejoin:round;stroke-miterlimit:10;}
	.st21{fill:none;stroke:#28348A;stroke-width:0.6415;stroke-miterlimit:10;}
	.st22{fill:#28348A;stroke:#F2F2F2;stroke-width:0.6415;stroke-miterlimit:10;}
	.st23{fill:none;stroke:#74CBF3;stroke-width:0.6415;stroke-miterlimit:10;}
	.st24{fill:none;}
	.st25{fill:none;stroke:#28348A;stroke-width:0.9945;stroke-linecap:round;stroke-linejoin:round;stroke-miterlimit:10;}
	.st26{fill:#FAFAFA;}
	.st27{fill:none;stroke:#D1D1D1;stroke-miterlimit:10;}
	.st28{fill:none;stroke:#000000;stroke-miterlimit:10;}
	.st29{fill:#FBB01B;}
	.st30{fill:none;stroke:#FAB01B;stroke-width:0.331;stroke-miterlimit:10;}
	.st31{fill:#FAB01B;}
	.st32{fill:#277893;}
	.st33{fill:#BFCAD7;}
	.st34{fill:none;stroke:#FAB01B;stroke-width:4.5263;stroke-miterlimit:10;}
	.st35{fill:none;stroke:#FAB01B;stroke-width:11;stroke-linecap:round;stroke-miterlimit:10;}
	.st36{fill:none;stroke:#FAB01B;stroke-width:3.0275;stroke-miterlimit:10;}
	.st37{fill:none;stroke:#FAB01B;stroke-width:7.3576;stroke-linecap:round;stroke-miterlimit:10;}
	.st38{filter:url(#Adobe_OpacityMaskFilter_1_);}
	.st39{mask:url(#SVGID_12_);fill:#FAFAFA;stroke:#FBB01B;stroke-miterlimit:10;}
	.st40{clip-path:url(#SVGID_14_);fill:#FFFFFF;}
	.st41{clip-path:url(#SVGID_14_);fill:url(#SVGID_15_);}
	.st42{clip-path:url(#SVGID_17_);fill:#FFFFFF;}
	.st43{clip-path:url(#SVGID_17_);fill:url(#SVGID_18_);}
	.st44{fill:none;stroke:#D4D4D4;stroke-miterlimit:10;}
	.st45{fill:url(#SVGID_19_);stroke:#E0E0E0;stroke-miterlimit:10;}
	.st46{fill:url(#SVGID_20_);stroke:#E0E0E0;stroke-width:0.9895;stroke-miterlimit:10;}
	.st47{fill:url(#SVGID_21_);}
	.st48{fill:url(#SVGID_22_);}
	.st49{fill:url(#SVGID_23_);}
	.st50{fill:none;stroke:#277893;stroke-miterlimit:10;}
	.st51{fill:url(#SVGID_24_);}
	.st52{fill:url(#SVGID_25_);stroke:#E0E0E0;stroke-miterlimit:10;}
	.st53{fill:url(#SVGID_26_);}
	.st54{fill:url(#SVGID_27_);}
	.st55{fill:url(#SVGID_28_);}
	.st56{fill:url(#SVGID_29_);}
	.st57{fill:#2E5766;}
	.st58{fill:#E8E8E8;}
	.st59{fill:#D1D1D1;}
	.st60{fill:none;stroke:#D1D1D1;stroke-width:0.5263;stroke-miterlimit:10;}
	.st61{fill:#F0D297;}
	.st62{fill:none;stroke:#F0D297;stroke-width:0.5263;stroke-miterlimit:10;}
	.st63{fill:#EAEAEA;}
	.st64{fill:#E2E2E2;}
	.st65{fill:#A0B6C4;}
	.st66{fill:#FFFFFF;stroke:#999999;stroke-width:0.5;stroke-miterlimit:10;}
	.st67{fill:none;stroke:#FFFFFF;stroke-width:2;stroke-miterlimit:10;}
	.st68{font-family:'Arial-BoldMT';}
	.st69{font-size:73.246px;}
	.st70{fill:#FFA300;}
	.st71{fill:none;stroke:#FAB01B;stroke-width:5.0984;stroke-linecap:round;stroke-miterlimit:10;}
	.st72{fill:none;stroke:#D1D1D1;stroke-width:0.8159;stroke-miterlimit:10;}
	.st73{fill:#A0B6C4;stroke:#CCCCCC;stroke-miterlimit:10;}
	.st74{fill:#A0B6C4;stroke:#CCCCCC;stroke-width:0.1088;stroke-miterlimit:10;}
	.st75{fill:none;stroke:#277893;stroke-width:0.4211;stroke-miterlimit:10;}
</style>
<g id="Grid" class="st0">
</g>
<g id="Bakcground">
</g>
<g id="Top_Bar">
</g>
<g id="Icones">
</g>
<g id="Camada_2">
	<g>
		<text transform="matrix(1 0 0 1 28.253 100.751)" class="st57 st68 st69">Dash</text>
		<g>
			<g>
				<path class="st19" d="M66.7,189l-5.6-7.6c-2,0.7-4.3,1.1-6.7,1.1H51c-10.7,0-17.8-7.2-17.8-18.1v-17.5
					c0-11.1,7.1-18.5,17.8-18.5h3.4c10.7,0,17.8,7.3,17.8,18.5v17.5c0,5.3-1.7,9.7-4.6,12.8l5.1,7.1L66.7,189z M56.5,173.7l-5-6.8
					l4.8-4l5.4,7.4c1.1-1.7,1.8-4.1,1.8-6.8v-15.8c0-7.1-3.7-10.9-9.2-10.9h-2.9c-6,0-9.3,4.4-9.3,10.9v15.8
					c0,6.8,3.7,10.4,9.3,10.4h2.9C55,174,55.8,173.9,56.5,173.7z"/>
				<path class="st19" d="M108.8,145v36.7H102l-0.5-4.6c-1.7,3.3-5.1,5.3-9.5,5.3h-1.6c-6.8,0-11-5-11-12.4v-25h8v24.1
					c0,3.8,1.9,5.7,4.9,5.7h2c3.9,0,6.3-2.9,6.3-7.2V145H108.8z"/>
				<path class="st19" d="M145.3,156.2v25.5h-6.6l-0.5-4.3c-1.7,3.2-4.9,5-8.7,5h-2.3c-6.9,0-11.5-4.3-11.5-11
					c0-7.1,4.8-11.3,12.1-11.3h9.7v-3.8c0-3.1-2-4.7-5.1-4.7h-2.5c-2.9,0-5-0.1-9.4,2.6l-2.8-6.4c4.4-2.6,6-3.6,11.6-3.5h4.2
					C140.5,144.3,145.3,149.1,145.3,156.2z M137.5,168.8v-2.6h-9.7c-2.7,0-4.3,1.9-4.3,4.8c0,3,2,4.7,5.1,4.7h2.3
					C134.9,175.6,137.5,172.9,137.5,168.8z"/>
				<path class="st19" d="M153.6,170.9v-41.8h8V170c0,3.5,1.2,5,3.8,5h1.3v7.5h-3.7C156.2,182.4,153.6,178.2,153.6,170.9z"/>
				<path class="st19" d="M172.2,130.4h8v8.1h-8V130.4z M172.2,145h8v36.7h-8V145z"/>
				<path class="st19" d="M201.4,128.4h4.5v7.1h-2.7c-4.1,0-5.1,2.1-5.1,5.9v3.7h7.1v6.8h-7.1v29.8h-8v-29.8h-4.3V145h4.3v-4.2
					C190.1,131.3,194.3,128.4,201.4,128.4z M218.9,130.4v8.1h-8v-8.1H218.9z M210.9,145h8v36.7h-8V145z"/>
				<path class="st19" d="M226.5,168.5v-9.5c0-8.9,5.1-14.6,13.9-14.6h2.7c7.4,0,8.6,2.2,10.5,5.4l-5.1,5.4
					c-1.3-2.6-2.7-3.2-5.8-3.2h-1.9c-4.3,0-6.1,2.9-6.1,7.5v8.7c0,4.4,2,6.9,6.1,6.9h1.9c3.2,0,5.1-0.7,6.2-3.5l5,5.2
					c-2.1,4-5.3,5.8-10.8,5.8h-2.7C231.6,182.4,226.5,176.9,226.5,168.5z"/>
				<path class="st19" d="M289.4,156.2v25.5h-6.6l-0.5-4.3c-1.7,3.2-4.9,5-8.7,5h-2.3c-6.9,0-11.5-4.3-11.5-11
					c0-7.1,4.8-11.3,12.1-11.3h9.7v-3.8c0-3.1-2-4.7-5.1-4.7H274c-3.2,0-5,1.9-5,4.7h-7.7c0-7.1,4.9-11.9,12.1-11.9h4.2
					C284.6,144.3,289.4,149.1,289.4,156.2z M281.6,168.8v-2.6h-9.7c-2.7,0-4.3,1.9-4.3,4.8c0,3,2,4.7,5.1,4.7h2.3
					C279,175.6,281.6,172.9,281.6,168.8z"/>
			</g>
		</g>
	</g>
</g>
<g id="Mid_Bar">
</g>
<g id="Bottom_Bar">
</g>
</svg>
